{
  "asset": {
    "version": "2.0",
    "generator": "THREE.GLTFExporter"
  },
  "scenes": [
    {
      "name": "Scene",
      "nodes": [
        3,
        4,
        5
      ]
    }
  ],
  "scene": 0,
  "nodes": [
    {
      "rotation": [
        -0.7071068387877038,
        0,
        0,
        0.7071067235853865
      ],
      "translation": [
        0,
        -0.47171542048454285,
        0
      ],
      "scale": [
        3.086524248123169,
        3.0865242481231685,
        3.0865242481231685
      ],
      "name": "Plane001",
      "extras": {
        "transformData": {
          "inheritType": 1,
          "eulerOrder": "ZYX",
          "translation": [
            0,
            -0.47171542048454285,
            0
          ],
          "rotation": [
            -90.00000933466734,
            0,
            0
          ],
          "scale": [
            3.086524248123169,
            3.086524248123169,
            3.086524248123169
          ],
          "parentMatrix": {
            "elements": [
              1,
              0,
              0,
              0,
              0,
              1,
              0,
              0,
              0,
              0,
              1,
              0,
              0,
              0,
              0,
              1
            ]
          },
          "parentMatrixWorld": {
            "elements": [
              1,
              0,
              0,
              0,
              0,
              1,
              0,
              0,
              0,
              0,
              1,
              0,
              0,
              0,
              0,
              1
            ]
          }
        }
      },
      "mesh": 0
    },
    {
      "rotation": [
        -0.5008274212486427,
        0.49917124734603785,
        0.49918340850699616,
        0.5008152200360656
      ],
      "translation": [
        -0.7049002647399902,
        0.14803850650787354,
        -1.9670636653900146
      ],
      "scale": [
        0.9999999403953553,
        0.9999999403953552,
        1
      ],
      "name": "BezierCurve",
      "extras": {
        "transformData": {
          "inheritType": 1,
          "eulerOrder": "ZYX",
          "translation": [
            -0.7049002647399902,
            0.14803850650787354,
            -1.9670636653900146
          ],
          "rotation": [
            -90.00139586306885,
            89.81161222679087,
            0
          ],
          "scale": [
            0.9999999403953552,
            0.9999999403953552,
            1
          ],
          "parentMatrix": {
            "elements": [
              1,
              0,
              0,
              0,
              0,
              1,
              0,
              0,
              0,
              0,
              1,
              0,
              0,
              0,
              0,
              1
            ]
          },
          "parentMatrixWorld": {
            "elements": [
              1,
              0,
              0,
              0,
              0,
              1,
              0,
              0,
              0,
              0,
              1,
              0,
              0,
              0,
              0,
              1
            ]
          }
        }
      },
      "mesh": 1
    },
    {
      "rotation": [
        -0.5008274212486427,
        0.49917124734603785,
        0.49918340850699616,
        0.5008152200360656
      ],
      "translation": [
        -0.023085027933120728,
        0.22465312480926514,
        -0.27722418308258057
      ],
      "scale": [
        1.9999998807907107,
        0.9999999403953552,
        1
      ],
      "name": "Plane",
      "extras": {
        "transformData": {
          "inheritType": 1,
          "eulerOrder": "ZYX",
          "translation": [
            -0.023085027933120728,
            0.22465312480926514,
            -0.27722418308258057
          ],
          "rotation": [
            -90.00139586306885,
            89.81161222679087,
            0
          ],
          "scale": [
            1.9999998807907104,
            0.9999999403953552,
            1
          ],
          "parentMatrix": {
            "elements": [
              1,
              0,
              0,
              0,
              0,
              1,
              0,
              0,
              0,
              0,
              1,
              0,
              0,
              0,
              0,
              1
            ]
          },
          "parentMatrixWorld": {
            "elements": [
              1,
              0,
              0,
              0,
              0,
              1,
              0,
              0,
              0,
              0,
              1,
              0,
              0,
              0,
              0,
              1
            ]
          }
        }
      },
      "mesh": 2
    },
    {
      "children": [
        0,
        1,
        2
      ]
    },
    {
      "rotation": [
        -0.4906345551994774,
        0.5081541231310399,
        -0.5077230081071208,
        0.493228615783585
      ],
      "translation": [
        0.19050233066082,
        7.046266078948975,
        0.06743453443050385
      ],
      "scale": [
        0.9999999999999999,
        1,
        0.9999999403953553
      ],
      "name": "Camera",
      "extras": {
        "transformData": {
          "inheritType": 1,
          "eulerOrder": "ZYX",
          "translation": [
            0.19050233066082,
            7.046266078948975,
            0.06743453443050385
          ],
          "rotation": [
            -89.87886226935882,
            0.17529126885988985,
            -91.83416101362589
          ],
          "scale": [
            1,
            1,
            0.9999999403953552
          ],
          "parentMatrix": {
            "elements": [
              1,
              0,
              0,
              0,
              0,
              1,
              0,
              0,
              0,
              0,
              1,
              0,
              0,
              0,
              0,
              1
            ]
          },
          "parentMatrixWorld": {
            "elements": [
              1,
              0,
              0,
              0,
              0,
              1,
              0,
              0,
              0,
              0,
              1,
              0,
              0,
              0,
              0,
              1
            ]
          }
        }
      },
      "camera": 0
    },
    {
      "rotation": [
        -0.07359454451639981,
        0.9379153247612881,
        -0.3118455707820058,
        -0.13285716608070522
      ],
      "translation": [
        -1.4113013744354248,
        6.148731231689453,
        -2.378446578979492
      ],
      "name": "Light",
      "extras": {
        "transformData": {
          "inheritType": 1,
          "eulerOrder": "ZYX",
          "translation": [
            -1.4113013744354248,
            6.148731231689453,
            -2.378446578979492
          ],
          "rotation": [
            36.28280839947023,
            -162.8353981152558,
            3.3113459325045858
          ],
          "parentMatrix": {
            "elements": [
              1,
              0,
              0,
              0,
              0,
              1,
              0,
              0,
              0,
              0,
              1,
              0,
              0,
              0,
              0,
              1
            ]
          },
          "parentMatrixWorld": {
            "elements": [
              1,
              0,
              0,
              0,
              0,
              1,
              0,
              0,
              0,
              0,
              1,
              0,
              0,
              0,
              0,
              1
            ]
          }
        }
      },
      "extensions": {
        "KHR_lights_punctual": {
          "light": 0
        }
      }
    }
  ],
  "bufferViews": [
    {
      "buffer": 0,
      "byteOffset": 0,
      "byteLength": 72,
      "target": 34962,
      "byteStride": 12
    },
    {
      "buffer": 0,
      "byteOffset": 72,
      "byteLength": 72,
      "target": 34962,
      "byteStride": 12
    },
    {
      "buffer": 0,
      "byteOffset": 144,
      "byteLength": 48,
      "target": 34962,
      "byteStride": 8
    },
    {
      "buffer": 0,
      "byteOffset": 192,
      "byteLength": 743040,
      "target": 34962,
      "byteStride": 12
    },
    {
      "buffer": 0,
      "byteOffset": 743232,
      "byteLength": 743040,
      "target": 34962,
      "byteStride": 12
    },
    {
      "buffer": 0,
      "byteOffset": 1486272,
      "byteLength": 495360,
      "target": 34962,
      "byteStride": 8
    },
    {
      "buffer": 0,
      "byteOffset": 1981632,
      "byteLength": 18648,
      "target": 34962,
      "byteStride": 12
    },
    {
      "buffer": 0,
      "byteOffset": 2000280,
      "byteLength": 18648,
      "target": 34962,
      "byteStride": 12
    },
    {
      "buffer": 0,
      "byteOffset": 2018928,
      "byteLength": 12432,
      "target": 34962,
      "byteStride": 8
    },
    {
      "buffer": 0,
      "byteOffset": 2031360,
      "byteLength": 176
    },
    {
      "buffer": 0,
      "byteOffset": 2031536,
      "byteLength": 528
    }
  ],
  "buffers": [
    {
      "byteLength": 2032064,
      "uri": "data:application/octet-stream;base64,"
    }
  ],
  "accessors": [
    {
      "bufferView": 0,
      "componentType": 5126,
      "count": 6,
      "max": [
        1,
        1,
        0
      ],
      "min": [
        -1,
        -1,
        0
      ],
      "type": "VEC3"
    },
    {
      "bufferView": 1,
      "componentType": 5126,
      "count": 6,
      "max": [
        0,
        0,
        1
      ],
      "min": [
        0,
        0,
        1
      ],
      "type": "VEC3"
    },
    {
      "bufferView": 2,
      "componentType": 5126,
      "count": 6,
      "max": [
        1,
        1
      ],
      "min": [
        0,
        0
      ],
      "type": "VEC2"
    },
    {
      "bufferView": 3,
      "componentType": 5126,
      "count": 61920,
      "max": [
        0.14500339329242706,
        0.266008198261261,
        0.021626954898238182
      ],
      "min": [
        -3.5075953006744385,
        -1.6240800619125366,
        -0.019108450040221214
      ],
      "type": "VEC3"
    },
    {
      "bufferView": 4,
      "componentType": 5126,
      "count": 61920,
      "max": [
        0.9999895095825195,
        0.9999825358390808,
        0.9999939799308777
      ],
      "min": [
        -0.9999154210090637,
        -0.9999096989631653,
        -0.9999939799308777
      ],
      "type": "VEC3"
    },
    {
      "bufferView": 5,
      "componentType": 5126,
      "count": 61920,
      "max": [
        1,
        1
      ],
      "min": [
        0,
        0
      ],
      "type": "VEC2"
    },
    {
      "bufferView": 6,
      "componentType": 5126,
      "count": 1554,
      "max": [
        1,
        1,
        0
      ],
      "min": [
        -1,
        -1,
        0
      ],
      "type": "VEC3"
    },
    {
      "bufferView": 7,
      "componentType": 5126,
      "count": 1554,
      "max": [
        0,
        0,
        1
      ],
      "min": [
        0,
        0,
        1
      ],
      "type": "VEC3"
    },
    {
      "bufferView": 8,
      "componentType": 5126,
      "count": 1554,
      "max": [
        1,
        1
      ],
      "min": [
        0,
        0
      ],
      "type": "VEC2"
    },
    {
      "bufferView": 9,
      "componentType": 5126,
      "count": 44,
      "max": [
        1.5
      ],
      "min": [
        0.03333333507180214
      ],
      "type": "SCALAR"
    },
    {
      "bufferView": 10,
      "componentType": 5126,
      "count": 44,
      "max": [
        -0.7049002647399902,
        0.25230836868286133,
        -1.9670636653900146
      ],
      "min": [
        -0.7049002647399902,
        0.1481906920671463,
        -1.9670636653900146
      ],
      "type": "VEC3"
    }
  ],
  "materials": [
    {
      "pbrMetallicRoughness": {
        "baseColorFactor": [
          1,
          0.8002848029136658,
          0.5551972389221191,
          1
        ],
        "metallicFactor": 0.5,
        "roughnessFactor": 0.5
      },
      "name": "Material.006"
    },
    {
      "pbrMetallicRoughness": {
        "baseColorFactor": [
          0,
          0,
          0,
          1
        ],
        "metallicFactor": 0.5,
        "roughnessFactor": 0.5
      },
      "name": "Material"
    },
    {
      "pbrMetallicRoughness": {
        "baseColorFactor": [
          0.8000000715255737,
          0.6168286204338074,
          0.18508411943912506,
          1
        ],
        "metallicFactor": 0.5,
        "roughnessFactor": 0.5
      },
      "name": "Material.005"
    }
  ],
  "meshes": [
    {
      "primitives": [
        {
          "mode": 4,
          "attributes": {
            "POSITION": 0,
            "NORMAL": 1,
            "TEXCOORD_0": 2
          },
          "material": 0
        }
      ]
    },
    {
      "primitives": [
        {
          "mode": 4,
          "attributes": {
            "POSITION": 3,
            "NORMAL": 4,
            "TEXCOORD_0": 5
          },
          "material": 1
        }
      ]
    },
    {
      "primitives": [
        {
          "mode": 4,
          "attributes": {
            "POSITION": 6,
            "NORMAL": 7,
            "TEXCOORD_0": 8
          },
          "material": 2
        }
      ]
    }
  ],
  "cameras": [
    {
      "type": "perspective",
      "perspective": {
        "aspectRatio": 0.5625,
        "yfov": 0.6733496387734544,
        "zfar": 0.09999999403953552,
        "znear": 0.00009999999552965156
      },
      "name": "PerspectiveCamera"
    }
  ],
  "extensions": {
    "KHR_lights_punctual": {
      "lights": [
        {
          "name": "Light",
          "color": [
            1,
            1,
            1
          ],
          "intensity": 0.08,
          "type": "point"
        }
      ]
    }
  },
  "animations": [
    {
      "name": "BezierCurve|BezierCurveAction.001",
      "samplers": [
        {
          "input": 9,
          "output": 10,
          "interpolation": "LINEAR"
        }
      ],
      "channels": [
        {
          "sampler": 0,
          "target": {
            "node": 1,
            "path": "translation"
          }
        }
      ]
    }
  ],
  "extensionsUsed": [
    "KHR_lights_punctual"
  ]
}